<svg style="display:none" xmlns="http://www.w3.org/2000/svg" xmlns:xlink="http://www.w3.org/1999/xlink" version="1.1">
	<symbol id="search" stroke="currentColor" fill="currentColor" stroke-width="0" viewBox="0 0 512 512" color="#001489" height="16" width="16" xmlns="http://www.w3.org/2000/svg" style="color: rgb(0, 20, 137);"><path fill="none" stroke-miterlimit="10" stroke-width="32" d="M221.09 64a157.09 157.09 0 1 0 157.09 157.09A157.1 157.1 0 0 0 221.09 64z"></path><path fill="none" stroke-linecap="round" stroke-miterlimit="10" stroke-width="32" d="M338.29 338.29 448 448"></path></symbol>
	<symbol id="account" viewBox="0 0 14 15.999"><path id="usuario" d="M7-6a4,4,0,0,0,4-4,4,4,0,0,0-4-4,4,4,0,0,0-4,4A4,4,0,0,0,7-6Zm0-7a3,3,0,0,1,3,3A3,3,0,0,1,7-7a3,3,0,0,1-3-3A3,3,0,0,1,7-13ZM8.584-4.5H5.416A5.416,5.416,0,0,0,0,.916,1.083,1.083,0,0,0,1.083,2H12.918A1.081,1.081,0,0,0,14,.916,5.416,5.416,0,0,0,8.584-4.5ZM12.916,1H1.083A.084.084,0,0,1,1,.916,4.421,4.421,0,0,1,5.416-3.5H8.581A4.422,4.422,0,0,1,13,.916.084.084,0,0,1,12.916,1Z" transform="translate(0 14)" fill="#001489"/></symbol>

	<symbol id="shopping_bag" fill="none" viewBox="0 0 16.625 19" xmlns="http://www.w3.org/2000/svg" xmlns:xlink="http://www.w3.org/1999/xlink"><path xmlns="http://www.w3.org/2000/svg" id="sacola" d="M4.75-9.25v-1.187A3.542,3.542,0,0,1,8.313-14a3.563,3.563,0,0,1,3.563,3.563V-9.25h2.969a1.782,1.782,0,0,1,1.781,1.781V1.438A3.563,3.563,0,0,1,13.063,5h-9.5A3.563,3.563,0,0,1,0,1.438V-7.469A1.781,1.781,0,0,1,1.781-9.25Zm1.188,0h4.75v-1.187a2.376,2.376,0,0,0-2.375-2.375,2.376,2.376,0,0,0-2.375,2.375ZM1.781-8.062a.6.6,0,0,0-.594.594V1.438A2.376,2.376,0,0,0,3.563,3.813h9.5a2.377,2.377,0,0,0,2.375-2.375V-7.469a.6.6,0,0,0-.594-.594H11.875v2.969a.6.6,0,0,1-.594.594.6.6,0,0,1-.594-.594V-8.062H5.938v2.969a.6.6,0,0,1-.594.594.6.6,0,0,1-.594-.594V-8.062H1.781Z" transform="translate(0 14)" fill="#001489"/></symbol>

	<symbol id="carret_right" xmlns='http://www.w3.org/2000/svg' viewBox='0 0 10 8.571'><path d='M5.906.148,9.834,3.9a.536.536,0,0,1,0,.776L5.906,8.423a.536.536,0,0,1-.739-.776L8.128,4.822H.536a.536.536,0,1,1,0-1.071H8.127L5.165.925A.537.537,0,0,1,5.906.148Z' transform='translate(10 8.571) rotate(180)' fill='%23001489'/></symbol>
	<symbol id="carret_left" xmlns='http://www.w3.org/2000/svg' viewBox='0 0 10 8.571'><path d='M5.906-14.852,9.834-11.1a.536.536,0,0,1,.166.388.536.536,0,0,1-.166.388L5.906-6.577a.536.536,0,0,1-.758-.018.535.535,0,0,1,.018-.758l2.962-2.826H.536A.536.536,0,0,1,0-10.714a.536.536,0,0,1,.536-.535H8.127L5.165-14.075a.538.538,0,0,1-.018-.759A.537.537,0,0,1,5.906-14.852Z' transform='translate(0 14.999)' fill='%23001489'/></symbol>

	<symbol id="menu" xmlns="http://www.w3.org/2000/svg" viewBox="0 -960 960 960" fill="currentColor"><path d="M120-240v-80h720v80H120Zm0-200v-80h720v80H120Zm0-200v-80h720v80H120Z"/></symbol>
	<symbol id="account_circle" xmlns="http://www.w3.org/2000/svg" viewBox="0 -960 960 960" fill="currentColor"><path d="M234-276q51-39 114-61.5T480-360q69 0 132 22.5T726-276q35-41 54.5-93T800-480q0-133-93.5-226.5T480-800q-133 0-226.5 93.5T160-480q0 59 19.5 111t54.5 93Zm246-164q-59 0-99.5-40.5T340-580q0-59 40.5-99.5T480-720q59 0 99.5 40.5T620-580q0 59-40.5 99.5T480-440Zm0 360q-83 0-156-31.5T197-197q-54-54-85.5-127T80-480q0-83 31.5-156T197-763q54-54 127-85.5T480-880q83 0 156 31.5T763-763q54 54 85.5 127T880-480q0 83-31.5 156T763-197q-54 54-127 85.5T480-80Zm0-80q53 0 100-15.5t86-44.5q-39-29-86-44.5T480-280q-53 0-100 15.5T294-220q39 29 86 44.5T480-160Zm0-360q26 0 43-17t17-43q0-26-17-43t-43-17q-26 0-43 17t-17 43q0 26 17 43t43 17Zm0-60Zm0 360Z"/></symbol>
	<symbol id="close" xmlns="http://www.w3.org/2000/svg" viewBox="0 -960 960 960" fill="currentColor"><path d="m256-200-56-56 224-224-224-224 56-56 224 224 224-224 56 56-224 224 224 224-56 56-224-224-224 224Z"/></symbol>
	<symbol id="chevron-right" xmlns="http://www.w3.org/2000/svg" viewBox="0 0 10 18" fill="currentColor"><path d="M9.69313 8.17214L1.33363 0.207143C1.19415 0.0741756 1.00884 -3.89772e-07 0.816131 -3.98195e-07C0.623425 -4.06619e-07 0.438114 0.0741756 0.298632 0.207143L0.289631 0.216143C0.221778 0.280603 0.167748 0.358192 0.130828 0.444192C0.0939073 0.530191 0.0748682 0.622803 0.0748682 0.716393C0.0748682 0.809982 0.0939073 0.902594 0.130828 0.988593C0.167748 1.07459 0.221778 1.15218 0.289631 1.21664L8.16163 8.71664L0.28963 16.2136C0.221777 16.2781 0.167748 16.3557 0.130827 16.4417C0.0939066 16.5277 0.0748675 16.6203 0.0748675 16.7139C0.0748675 16.8075 0.0939066 16.9001 0.130827 16.9861C0.167748 17.0721 0.221777 17.1497 0.28963 17.2141L0.298631 17.2231C0.438113 17.3561 0.623424 17.4303 0.81613 17.4303C1.00884 17.4303 1.19415 17.3561 1.33363 17.2231L9.69313 9.25814C9.76665 9.1881 9.82518 9.10385 9.86517 9.01051C9.90516 8.91717 9.92578 8.81669 9.92578 8.71514C9.92578 8.6136 9.90516 8.51311 9.86517 8.41977C9.82518 8.32643 9.76665 8.24219 9.69313 8.17214Z"/></symbol>
	<symbol id="favorite" xmlns="http://www.w3.org/2000/svg" viewBox="0 -960 960 960" fill="currentColor"><path d="m480-120-58-52q-101-91-167-157T150-447.5Q111-500 95.5-544T80-634q0-94 63-157t157-63q52 0 99 22t81 62q34-40 81-62t99-22q94 0 157 63t63 157q0 46-15.5 90T810-447.5Q771-395 705-329T538-172l-58 52Zm0-108q96-86 158-147.5t98-107q36-45.5 50-81t14-70.5q0-60-40-100t-100-40q-47 0-87 26.5T518-680h-76q-15-41-55-67.5T300-774q-60 0-100 40t-40 100q0 35 14 70.5t50 81q36 45.5 98 107T480-228Zm0-273Z"/></symbol>
	<symbol id="home_pin" xmlns="http://www.w3.org/2000/svg" viewBox="0 -960 960 960" fill="currentColor"><path d="M360-440h80v-110h80v110h80v-190l-120-80-120 80v190Zm120 254q122-112 181-203.5T720-552q0-109-69.5-178.5T480-800q-101 0-170.5 69.5T240-552q0 71 59 162.5T480-186Zm0 106Q319-217 239.5-334.5T160-552q0-150 96.5-239T480-880q127 0 223.5 89T800-552q0 100-79.5 217.5T480-80Zm0-480Z"/></symbol>
	<symbol id="call" xmlns="http://www.w3.org/2000/svg" viewBox="0 -960 960 960" fill="currentColor"><path d="M798-120q-125 0-247-54.5T329-329Q229-429 174.5-551T120-798q0-18 12-30t30-12h162q14 0 25 9.5t13 22.5l26 140q2 16-1 27t-11 19l-97 98q20 37 47.5 71.5T387-386q31 31 65 57.5t72 48.5l94-94q9-9 23.5-13.5T670-390l138 28q14 4 23 14.5t9 23.5v162q0 18-12 30t-30 12ZM241-600l66-66-17-94h-89q5 41 14 81t26 79Zm358 358q39 17 79.5 27t81.5 13v-88l-94-19-67 67ZM241-600Zm358 358Z"/></symbol>
	<symbol id="local_shipping" xmlns="http://www.w3.org/2000/svg" viewBox="0 -960 960 960" fill="currentColor"><path d="M240-160q-50 0-85-35t-35-85H40v-440q0-33 23.5-56.5T120-800h560v160h120l120 160v200h-80q0 50-35 85t-85 35q-50 0-85-35t-35-85H360q0 50-35 85t-85 35Zm0-80q17 0 28.5-11.5T280-280q0-17-11.5-28.5T240-320q-17 0-28.5 11.5T200-280q0 17 11.5 28.5T240-240ZM120-360h32q17-18 39-29t49-11q27 0 49 11t39 29h272v-360H120v360Zm600 120q17 0 28.5-11.5T760-280q0-17-11.5-28.5T720-320q-17 0-28.5 11.5T680-280q0 17 11.5 28.5T720-240Zm-40-200h170l-90-120h-80v120ZM360-540Z"/></symbol>
	<symbol id="pan_zoom" xmlns="http://www.w3.org/2000/svg" viewBox="0 -960 960 960" fill="currentColor"><path d="M120-120v-240h80v104l124-124 56 56-124 124h104v80H120Zm516-460-56-56 124-124H600v-80h240v240h-80v-104L636-580Z"/></symbol>
	<symbol id="share" xmlns="http://www.w3.org/2000/svg" viewBox="0 -960 960 960" fill="currentColor"><path d="M720-80q-50 0-85-35t-35-85q0-7 1-14.5t3-13.5L322-392q-17 15-38 23.5t-44 8.5q-50 0-85-35t-35-85q0-50 35-85t85-35q23 0 44 8.5t38 23.5l282-164q-2-6-3-13.5t-1-14.5q0-50 35-85t85-35q50 0 85 35t35 85q0 50-35 85t-85 35q-23 0-44-8.5T638-672L356-508q2 6 3 13.5t1 14.5q0 7-1 14.5t-3 13.5l282 164q17-15 38-23.5t44-8.5q50 0 85 35t35 85q0 50-35 85t-85 35Zm0-640q17 0 28.5-11.5T760-760q0-17-11.5-28.5T720-800q-17 0-28.5 11.5T680-760q0 17 11.5 28.5T720-720ZM240-440q17 0 28.5-11.5T280-480q0-17-11.5-28.5T240-520q-17 0-28.5 11.5T200-480q0 17 11.5 28.5T240-440Zm480 280q17 0 28.5-11.5T760-200q0-17-11.5-28.5T720-240q-17 0-28.5 11.5T680-200q0 17 11.5 28.5T720-160Zm0-600ZM240-480Zm480 280Z"/></symbol>
	<symbol id="sell" xmlns="http://www.w3.org/2000/svg" viewBox="0 -960 960 960" fill="currentColor"><path d="M856-390 570-104q-12 12-27 18t-30 6q-15 0-30-6t-27-18L103-457q-11-11-17-25.5T80-513v-287q0-33 23.5-56.5T160-880h287q16 0 31 6.5t26 17.5l352 353q12 12 17.5 27t5.5 30q0 15-5.5 29.5T856-390ZM513-160l286-286-353-354H160v286l353 354ZM260-640q25 0 42.5-17.5T320-700q0-25-17.5-42.5T260-760q-25 0-42.5 17.5T200-700q0 25 17.5 42.5T260-640Zm220 160Z"/></symbol>
	<symbol id="check-circle" xmlns="http://www.w3.org/2000/svg" viewBox="0 -960 960 960" fill="currentColor"><path d="m424-296 282-282-56-56-226 226-114-114-56 56 170 170Zm56 216q-83 0-156-31.5T197-197q-54-54-85.5-127T80-480q0-83 31.5-156T197-763q54-54 127-85.5T480-880q83 0 156 31.5T763-763q54 54 85.5 127T880-480q0 83-31.5 156T763-197q-54 54-127 85.5T480-80Zm0-80q134 0 227-93t93-227q0-134-93-227t-227-93q-134 0-227 93t-93 227q0 134 93 227t227 93Zm0-320Z"/></symbol>
	<symbol id="error" xmlns="http://www.w3.org/2000/svg" viewBox="0 -960 960 960" fill="currentColor"><path d="M480-280q17 0 28.5-11.5T520-320q0-17-11.5-28.5T480-360q-17 0-28.5 11.5T440-320q0 17 11.5 28.5T480-280Zm-40-160h80v-240h-80v240Zm40 360q-83 0-156-31.5T197-197q-54-54-85.5-127T80-480q0-83 31.5-156T197-763q54-54 127-85.5T480-880q83 0 156 31.5T763-763q54 54 85.5 127T880-480q0 83-31.5 156T763-197q-54 54-127 85.5T480-80Zm0-80q134 0 227-93t93-227q0-134-93-227t-227-93q-134 0-227 93t-93 227q0 134 93 227t227 93Zm0-320Z"/></symbol>
	<symbol id="trash" xmlns="http://www.w3.org/2000/svg" viewBox="0 -960 960 960" fill="currentColor"><path d="M280-120q-33 0-56.5-23.5T200-200v-520h-40v-80h200v-40h240v40h200v80h-40v520q0 33-23.5 56.5T680-120H280Zm400-600H280v520h400v-520ZM360-280h80v-360h-80v360Zm160 0h80v-360h-80v360ZM280-720v520-520Z"/></symbol>
</svg>
